<svg width="929" height="326" viewBox="0 0 929 326" fill="none" xmlns="http://www.w3.org/2000/svg">
<path d="M616.38 226.965H580.878L521.502 137.337V226.965H486V81.6559H521.502L580.878 171.698V81.6559H616.38V226.965Z" fill="white"/>
<path d="M731.387 226.965L701.698 182.462L675.539 226.965H635.263L681.975 153.069L634.225 81.6559H675.539L704.812 125.538L730.556 81.6559H770.833L724.535 154.931L772.701 226.965H731.387Z" fill="white"/>
<path d="M887.27 127.608C884.64 122.779 880.834 119.122 875.852 116.638C871.007 114.016 865.263 112.705 858.62 112.705C847.132 112.705 837.928 116.5 831.008 124.09C824.087 131.541 820.627 141.546 820.627 154.103C820.627 167.489 824.226 177.977 831.423 185.566C838.758 193.018 848.793 196.744 861.526 196.744C870.246 196.744 877.582 194.536 883.533 190.12C889.623 185.704 894.052 179.357 896.82 171.077H851.769V144.996H929V177.908C926.37 186.739 921.872 194.95 915.505 202.54C909.277 210.13 901.318 216.27 891.63 220.962C881.941 225.654 871.007 228 858.827 228C844.433 228 831.561 224.895 820.212 218.685C809.001 212.338 800.212 203.575 793.845 192.397C787.617 181.22 784.503 168.455 784.503 154.103C784.503 139.752 787.617 126.987 793.845 115.81C800.212 104.494 809.001 95.7315 820.212 89.5217C831.423 83.1739 844.225 80 858.62 80C876.059 80 890.73 84.2089 902.633 92.6266C914.675 101.044 922.633 112.705 926.509 127.608H887.27Z" fill="white"/>
<path d="M313.245 139.954L278.448 160.052L243.641 139.964V139.954L278.448 119.867L313.245 139.954Z" fill="#C66B16"/>
<path d="M278.45 79.6562V119.851L243.643 139.938L208.836 119.851L243.643 99.7534L278.45 79.6562Z" fill="#B15F12"/>
<path d="M348.064 79.66L313.257 99.7571L278.45 79.66L243.643 99.7571L208.836 119.854V-0.71875L243.643 19.3784L278.45 39.4656V39.4756L313.257 59.5628L348.064 79.66Z" fill="#C66B16"/>
<path d="M174.026 180.141V220.335L139.219 240.422V200.238L174.026 180.141Z" fill="#D14D00"/>
<path d="M208.831 200.238V240.422L174.023 220.335V180.141L208.831 200.238Z" fill="#EA7C15"/>
<path d="M208.833 240.431V240.441L174.026 260.528L139.219 240.431L174.026 220.344L208.833 240.431Z" fill="#823800"/>
<path d="M348.051 240.429L313.254 260.526H313.244L278.447 280.623L243.639 300.721L208.832 320.808L174.025 340.905L139.228 320.808H139.218L104.421 300.721L34.8071 260.526L0 240.429L34.8071 220.342L69.6141 240.429V240.439L104.411 260.526H104.421L139.218 280.623H139.228L174.025 300.721L243.639 260.526L278.447 240.439V240.429L243.639 220.342L208.832 200.245L174.025 180.148L139.218 200.245L104.421 220.332V220.342L69.6141 200.245V200.235L104.411 180.148H104.421L139.218 160.05L174.025 139.953L278.447 200.245L313.254 220.332V220.342L348.051 240.429Z" fill="#823800"/>
<path d="M278.444 240.442V240.452L243.637 260.539L174.023 300.733L139.226 280.636H139.216L104.419 260.539H104.409L69.6118 240.452V240.442L34.8047 220.355V59.5872L69.6118 39.5V200.257L104.419 220.355V220.345L139.216 200.257V240.442L174.023 260.539L208.83 240.452V200.257L243.637 220.355L278.444 240.442Z" fill="#B44301"/>
<path d="M174.025 -61V139.952L139.218 160.049L104.421 180.146H104.411L69.6141 200.233V39.4859L34.8071 59.5731V220.34L0 240.428V39.4759L34.8071 19.3787L69.6041 -0.708462H69.6141V-0.718475L104.411 -20.8056H104.421V139.952L139.218 119.865V-40.9028L174.025 -61Z" fill="#D14D00"/>
<path d="M313.252 139.953V180.148L278.445 160.05L313.242 139.953H313.252Z" fill="#B15F12"/>
<path d="M278.445 39.4859V39.4759L243.638 19.3887L208.831 -0.708462V119.865L243.638 139.952V139.962L278.445 160.049L313.252 180.146V139.952H313.242L278.445 119.865V79.6702L313.252 99.7674L348.059 119.855V240.428H348.049L313.252 220.34V220.33L278.445 200.243L174.023 139.952V-61L208.831 -40.9028H208.841L243.638 -20.8056L278.445 -0.708462L313.252 19.3787L348.059 39.4759V79.6702L313.252 59.5731L278.445 39.4859Z" fill="#EA7C15"/>
<path d="M139.219 -0.71752V119.866L104.422 139.953V-20.8047L139.219 -0.71752Z" fill="#B44301"/>
</svg>
