<svg width="171" height="72" viewBox="0 0 171 72" fill="none" xmlns="http://www.w3.org/2000/svg">
<path d="M55.798 36.0009L49.5996 39.6013L43.3994 36.0027V36.0009L49.5996 32.4023L55.798 36.0009Z" fill="#C66B16"/>
<path d="M49.5996 25.2012V32.4019L43.3994 36.0005L37.1992 32.4019L43.3994 28.8015L49.5996 25.2012Z" fill="#B15F12"/>
<path d="M61.9999 25.2004L55.7998 28.8008L49.5996 25.2004L43.3994 28.8008L37.1992 32.4011V10.8008L43.3994 14.4011L49.5996 17.9997V18.0015L55.7998 21.6001L61.9999 25.2004Z" fill="#C66B16"/>
<path d="M30.999 43.2012V50.4019L24.7988 54.0005V46.8015L30.999 43.2012Z" fill="#D14D00"/>
<path d="M37.1992 46.8015V54.0005L30.999 50.4019V43.2012L37.1992 46.8015Z" fill="#EA7C15"/>
<path d="M37.1992 54.0009V54.0027L30.999 57.6013L24.7988 54.0009L30.999 50.4023L37.1992 54.0009Z" fill="#823800"/>
<path d="M61.9982 54L55.7998 57.6004H55.798L49.5996 61.2007L43.3995 64.8011L37.1993 68.3996L30.9991 72L24.8007 68.3996H24.7989L18.6005 64.8011L6.20018 57.6004L0 54L6.20018 50.4014L12.4004 54V54.0018L18.5988 57.6004H18.6005L24.7989 61.2007H24.8007L30.9991 64.8011L43.3995 57.6004L49.5996 54.0018V54L43.3995 50.4014L37.1993 46.8011L30.9991 43.2007L24.7989 46.8011L18.6005 50.3996V50.4014L12.4004 46.8011V46.7993L18.5988 43.2007H18.6005L24.7989 39.6004L30.9991 36L49.5996 46.8011L55.7998 50.3996V50.4014L61.9982 54Z" fill="#823800"/>
<path d="M49.5997 54.0002V54.002L43.3995 57.6005L30.9991 64.8012L24.8007 61.2009H24.7989L18.6006 57.6005H18.5988L12.4004 54.002V54.0002L6.2002 50.4016V21.6005L12.4004 18.002V46.8012L18.6006 50.4016V50.3998L24.7989 46.8012V54.0002L30.9991 57.6005L37.1993 54.002V46.8012L43.3995 50.4016L49.5997 54.0002Z" fill="#B44301"/>
<path d="M30.9991 0V36L24.7989 39.6004L18.6005 43.2007H18.5988L12.4004 46.7993V18.0018L6.20018 21.6004V50.4014L0 54V18L6.20018 14.3996L12.3986 10.8011H12.4004V10.7993L18.5988 7.20072H18.6005V36L24.7989 32.4014V3.60036L30.9991 0Z" fill="#D14D00"/>
<path d="M55.7998 36V43.2007L49.5996 39.6004L55.798 36H55.7998Z" fill="#B15F12"/>
<path d="M49.5996 18.0018V18L43.3994 14.4014L37.1992 10.8011V32.4014L43.3994 36V36.0018L49.5996 39.6004L55.7997 43.2007V36H55.798L49.5996 32.4014V25.2007L55.7997 28.8011L61.9999 32.3996V54H61.9981L55.7997 50.4014V50.3996L49.5996 46.8011L30.999 36V0L37.1992 3.60036H37.201L43.3994 7.20072L49.5996 10.8011L55.7997 14.3996L61.9999 18V25.2007L55.7997 21.6004L49.5996 18.0018Z" fill="#EA7C15"/>
<path d="M24.799 10.7997V32.4019L18.6006 36.0005V7.20117L24.799 10.7997Z" fill="#B44301"/>
<path d="M110.512 48.5H105.612L94.5167 31.735V48.5H89.6167V24.035H94.5167L105.612 40.835V24.035H110.512V48.5ZM133.484 48.5L128.199 40.275L123.404 48.5H117.874L125.574 36.18L117.769 24.07H123.404L128.689 32.26L133.449 24.07H138.979L131.314 36.355L139.119 48.5H133.484ZM163.358 31.42C162.798 30.3933 162.028 29.6117 161.048 29.075C160.068 28.5383 158.925 28.27 157.618 28.27C156.171 28.27 154.888 28.5967 153.768 29.25C152.648 29.9033 151.773 30.8367 151.143 32.05C150.513 33.2633 150.198 34.6633 150.198 36.25C150.198 37.8833 150.513 39.3067 151.143 40.52C151.796 41.7333 152.695 42.6667 153.838 43.32C154.981 43.9733 156.311 44.3 157.828 44.3C159.695 44.3 161.223 43.81 162.413 42.83C163.603 41.8267 164.385 40.4383 164.758 38.665H156.358V34.92H169.588V39.19C169.261 40.8933 168.561 42.4683 167.488 43.915C166.415 45.3617 165.026 46.5283 163.323 47.415C161.643 48.2783 159.753 48.71 157.653 48.71C155.296 48.71 153.161 48.185 151.248 47.135C149.358 46.0617 147.865 44.58 146.768 42.69C145.695 40.8 145.158 38.6533 145.158 36.25C145.158 33.8467 145.695 31.7 146.768 29.81C147.865 27.8967 149.358 26.415 151.248 25.365C153.161 24.2917 155.285 23.755 157.618 23.755C160.371 23.755 162.763 24.4317 164.793 25.785C166.823 27.115 168.223 28.9933 168.993 31.42H163.358Z" fill="black"/>
</svg>
